<svg enable-background="new 0 0 32 32" height="512" viewBox="0 0 32 32" width="512" xmlns="http://www.w3.org/2000/svg"><path d="m26 32h-20c-3.314 0-6-2.686-6-6v-20c0-3.314 2.686-6 6-6h20c3.314 0 6 2.686 6 6v20c0 3.314-2.686 6-6 6z" fill="#f5e6fe"/><g fill="#be63f9"><path d="m23.147 10.356c.12-.227.187-.493.187-.773 0-.92-.747-1.667-1.667-1.667s-1.667.747-1.667 1.667.747 1.667 1.667 1.667c.28 0 .546-.067.773-.187l.707.707c.098.098.226.146.354.146s.256-.049.354-.146c.195-.195.195-.512 0-.707zm-1.48-.106c-.367 0-.667-.3-.667-.667s.3-.667.667-.667.667.3.667.667-.301.667-.667.667z"/><path d="m9.167 11.917h8.333c.643 0 1.167-.523 1.167-1.167v-1.667c0-.643-.523-1.167-1.167-1.167h-8.333c-.644.001-1.167.524-1.167 1.167v1.667c0 .643.523 1.167 1.167 1.167z"/><path d="m22.833 19.583h-13.666c-.644 0-1.167.524-1.167 1.167v1.667c0 .643.523 1.167 1.167 1.167h13.667c.643 0 1.167-.523 1.167-1.167v-1.667c-.001-.643-.524-1.167-1.168-1.167z"/></g><g fill="#d9a4fc"><path d="m23.5 13.25h-15c-.276 0-.5.224-.5.5s.224.5.5.5h15c.276 0 .5-.224.5-.5s-.224-.5-.5-.5z"/><path d="m23.5 15.25h-15c-.276 0-.5.224-.5.5s.224.5.5.5h15c.276 0 .5-.224.5-.5s-.224-.5-.5-.5z"/><path d="m23.5 17.25h-15c-.276 0-.5.224-.5.5s.224.5.5.5h15c.276 0 .5-.224.5-.5s-.224-.5-.5-.5z"/></g></svg>