<svg enable-background="new 0 0 32 32" height="512" viewBox="0 0 32 32" width="512" xmlns="http://www.w3.org/2000/svg"><path d="m26 32h-20c-3.314 0-6-2.686-6-6v-20c0-3.314 2.686-6 6-6h20c3.314 0 6 2.686 6 6v20c0 3.314-2.686 6-6 6z" fill="#ffe6e2"/><g fill="#fd907e"><path d="m23.5 19h-15c-.276 0-.5.224-.5.5s.224.5.5.5h15c.276 0 .5-.224.5-.5s-.224-.5-.5-.5z"/><path d="m23.5 21h-15c-.276 0-.5.224-.5.5s.224.5.5.5h15c.276 0 .5-.224.5-.5s-.224-.5-.5-.5z"/><path d="m23.5 23h-15c-.276 0-.5.224-.5.5s.224.5.5.5h15c.276 0 .5-.224.5-.5s-.224-.5-.5-.5z"/></g><path d="m22.833 8h-13.666c-.64 0-1.167.527-1.167 1.167v7.667c0 .639.527 1.166 1.167 1.166h13.667c.639 0 1.166-.527 1.166-1.167v-7.666c0-.64-.527-1.167-1.167-1.167zm.167 4.327-1.533-1.367c-.453-.407-1.153-.387-1.6.047l-3.733 3.74-.213.04c-.013-.007-.027-.013-.04-.027l-2.407-2.407c-.447-.447-1.16-.46-1.62-.033l-2.854 2.64v-5.793c0-.094.073-.167.167-.167h13.667c.093 0 .166.073.166.167z" fill="#fc573b"/></svg>