<svg enable-background="new 0 0 32 32" height="512" viewBox="0 0 32 32" width="512" xmlns="http://www.w3.org/2000/svg"><path d="m26 32h-20c-3.314 0-6-2.686-6-6v-20c0-3.314 2.686-6 6-6h20c3.314 0 6 2.686 6 6v20c0 3.314-2.686 6-6 6z" fill="#fff9dd"/><path d="m9.167 18h5c.64 0 1.167-.527 1.167-1.167v-7.666c0-.64-.527-1.167-1.167-1.167h-5c-.64 0-1.167.527-1.167 1.167v7.667c0 .639.527 1.166 1.167 1.166zm-.167-8.833c0-.094.073-.167.167-.167h5c.093 0 .167.073.167.167v3.247l-.1-.12c-.447-.533-1.353-.533-1.8 0l-.68.827c-.047.047-.1.06-.127.06s-.08-.007-.12-.047l-.347-.347c-.453-.453-1.2-.453-1.653 0l-.507.506z" fill="#ffd200"/><g fill="#ffe777"><path d="m23.5 19h-15c-.276 0-.5.224-.5.5s.224.5.5.5h15c.276 0 .5-.224.5-.5s-.224-.5-.5-.5z"/><path d="m23.5 21h-15c-.276 0-.5.224-.5.5s.224.5.5.5h15c.276 0 .5-.224.5-.5s-.224-.5-.5-.5z"/><path d="m23.5 23h-15c-.276 0-.5.224-.5.5s.224.5.5.5h15c.276 0 .5-.224.5-.5s-.224-.5-.5-.5z"/></g><path d="m22.833 8h-5c-.64 0-1.167.527-1.167 1.167v7.667c0 .64.527 1.167 1.167 1.167h5c.64-.001 1.167-.528 1.167-1.168v-7.666c0-.64-.527-1.167-1.167-1.167zm.167 4.413-.1-.12c-.447-.533-1.353-.533-1.8 0l-.68.827c-.047.047-.1.06-.127.06s-.08-.007-.12-.047l-.347-.347c-.453-.453-1.2-.453-1.653 0l-.507.507v-4.126c.001-.094.074-.167.167-.167h5c.094 0 .167.073.167.167z" fill="#ffd200"/></svg>