<svg enable-background="new 0 0 32 32" height="512" viewBox="0 0 32 32" width="512" xmlns="http://www.w3.org/2000/svg"><path d="m26 32h-20c-3.314 0-6-2.686-6-6v-20c0-3.314 2.686-6 6-6h20c3.314 0 6 2.686 6 6v20c0 3.314-2.686 6-6 6z" fill="#ffe6e2"/><path d="m22.833 13.333h-13.666c-.64 0-1.167.527-1.167 1.167v8.333c0 .64.527 1.167 1.167 1.167h13.667c.639 0 1.166-.527 1.166-1.167v-8.333c0-.64-.527-1.167-1.167-1.167zm.167 4.327-1.533-1.367c-.453-.407-1.153-.387-1.6.047l-3.733 3.74-.213.04c-.013-.007-.027-.013-.04-.027l-2.407-2.407c-.447-.447-1.16-.46-1.62-.033l-2.854 2.64v-5.793c0-.093.073-.167.167-.167h13.667c.093 0 .167.073.167.167v3.16z" fill="#fc573b"/><path d="m22.833 8h-13.666c-.644 0-1.167.523-1.167 1.167v1.667c0 .643.523 1.166 1.167 1.166h13.667c.643 0 1.166-.523 1.166-1.167v-1.666c0-.644-.523-1.167-1.167-1.167z" fill="#fd907e"/></svg>