<svg enable-background="new 0 0 32 32" height="512" viewBox="0 0 32 32" width="512" xmlns="http://www.w3.org/2000/svg"><path d="m26 32h-20c-3.314 0-6-2.686-6-6v-20c0-3.314 2.686-6 6-6h20c3.314 0 6 2.686 6 6v20c0 3.314-2.686 6-6 6z" fill="#ffe6e2"/><path d="m22.833 8h-1.667c-.643 0-1.166.523-1.166 1.167v13.667c0 .643.523 1.166 1.167 1.166h1.667c.643 0 1.166-.523 1.166-1.167v-13.666c0-.644-.523-1.167-1.167-1.167z" fill="#fd907e"/><g fill="#fc573b"><path d="m9.167 15.333h8.333c.64 0 1.167-.527 1.167-1.167v-5c0-.639-.527-1.166-1.167-1.166h-8.333c-.64 0-1.167.527-1.167 1.167v5c0 .64.527 1.166 1.167 1.166zm-.167-6.166c0-.094.073-.167.167-.167h8.333c.093 0 .167.073.167.167v1.567l-.607-.447c-.447-.333-1.047-.307-1.467.067l-2.167 1.933c-.06.053-.147.06-.213 0l-1.467-1.213c-.44-.36-1.073-.353-1.5.013l-1.246 1.066z"/><path d="m9.167 24h8.333c.64 0 1.167-.527 1.167-1.167v-5c0-.64-.527-1.167-1.167-1.167h-8.333c-.64.001-1.167.527-1.167 1.167v5c0 .64.527 1.167 1.167 1.167zm-.167-6.167c0-.093.073-.167.167-.167h8.333c.093 0 .167.073.167.167v1.567l-.607-.447c-.447-.333-1.047-.307-1.467.067l-2.167 1.933c-.06.053-.147.06-.213 0l-1.467-1.213c-.44-.36-1.073-.353-1.5.013l-1.246 1.067z"/></g></svg>