<svg enable-background="new 0 0 32 32" height="512" viewBox="0 0 32 32" width="512" xmlns="http://www.w3.org/2000/svg"><path d="m26 32h-20c-3.314 0-6-2.686-6-6v-20c0-3.314 2.686-6 6-6h20c3.314 0 6 2.686 6 6v20c0 3.314-2.686 6-6 6z" fill="#ffe6e2"/><path d="m23.147 10.106c.12-.227.187-.493.187-.773 0-.92-.747-1.667-1.667-1.667s-1.667.747-1.667 1.667.747 1.667 1.667 1.667c.28 0 .546-.067.773-.187l.707.707c.098.098.225.146.354.146s.256-.049.354-.146c.195-.195.195-.512 0-.707zm-1.48-.106c-.367 0-.667-.3-.667-.667s.3-.667.667-.667.667.3.667.667c-.001.367-.301.667-.667.667z" fill="#fc573b"/><path d="m9.167 11.667h8.333c.643 0 1.167-.523 1.167-1.167v-1.667c0-.643-.523-1.167-1.167-1.167h-8.333c-.644.001-1.167.524-1.167 1.167v1.667c0 .643.523 1.167 1.167 1.167z" fill="#fc573b"/><g fill="#fd907e"><path d="m8.5 14.333h4.333c.276 0 .5-.224.5-.5s-.224-.5-.5-.5h-4.333c-.276 0-.5.224-.5.5s.224.5.5.5z"/><path d="m8.5 16.333h4.333c.276 0 .5-.224.5-.5s-.224-.5-.5-.5h-4.333c-.276 0-.5.224-.5.5s.224.5.5.5z"/><path d="m8.5 18.333h4.333c.276 0 .5-.224.5-.5s-.224-.5-.5-.5h-4.333c-.276 0-.5.224-.5.5s.224.5.5.5z"/><path d="m8.5 20.333h4.333c.276 0 .5-.224.5-.5s-.224-.5-.5-.5h-4.333c-.276 0-.5.224-.5.5s.224.5.5.5z"/><path d="m8.5 22.333h4.333c.276 0 .5-.224.5-.5s-.224-.5-.5-.5h-4.333c-.276 0-.5.224-.5.5s.224.5.5.5z"/></g><path d="m22.833 13.333h-7c-.64 0-1.167.527-1.167 1.167v6.667c0 .64.527 1.167 1.167 1.167h7c.64 0 1.167-.527 1.167-1.167v-6.667c0-.64-.527-1.167-1.167-1.167zm-1.113 4.947-3.667 1.833c-.067.033-.147.053-.22.053-.093 0-.18-.027-.26-.073-.153-.093-.24-.253-.24-.427v-3.666c0-.173.087-.333.24-.427.147-.093.327-.1.48-.02l3.667 1.833c.173.087.28.26.28.447s-.107.36-.28.447z" fill="#fc573b"/></svg>