<svg enable-background="new 0 0 32 32" height="512" viewBox="0 0 32 32" width="512" xmlns="http://www.w3.org/2000/svg"><path d="m26 32h-20c-3.314 0-6-2.686-6-6v-20c0-3.314 2.686-6 6-6h20c3.314 0 6 2.686 6 6v20c0 3.314-2.686 6-6 6z" fill="#f5e6fe"/><path d="m22.833 7.667h-13.666c-.644 0-1.167.523-1.167 1.166v1.667c0 .643.523 1.167 1.167 1.167h13.667c.643 0 1.167-.523 1.167-1.167v-1.667c-.001-.643-.524-1.166-1.168-1.166z" fill="#be63f9"/><g fill="#d9a4fc"><path d="m8.5 14.333h4.333c.276 0 .5-.224.5-.5s-.224-.5-.5-.5h-4.333c-.276 0-.5.224-.5.5s.224.5.5.5z"/><path d="m8.5 16.333h4.333c.276 0 .5-.224.5-.5s-.224-.5-.5-.5h-4.333c-.276 0-.5.224-.5.5s.224.5.5.5z"/><path d="m8.5 18.333h4.333c.276 0 .5-.224.5-.5s-.224-.5-.5-.5h-4.333c-.276 0-.5.224-.5.5s.224.5.5.5z"/><path d="m8.5 20.333h4.333c.276 0 .5-.224.5-.5s-.224-.5-.5-.5h-4.333c-.276 0-.5.224-.5.5s.224.5.5.5z"/><path d="m8.5 22.333h4.333c.276 0 .5-.224.5-.5s-.224-.5-.5-.5h-4.333c-.276 0-.5.224-.5.5s.224.5.5.5z"/></g><path d="m22.833 13.333h-7c-.64 0-1.167.527-1.167 1.167v6.667c0 .64.527 1.167 1.167 1.167h7c.64 0 1.167-.527 1.167-1.167v-6.667c0-.64-.527-1.167-1.167-1.167zm-1.106 4.947-3.667 1.833c-.073.033-.153.053-.227.053-.093 0-.18-.027-.26-.073-.153-.093-.24-.253-.24-.427v-3.666c0-.173.087-.333.24-.427.147-.093.327-.1.487-.02l3.667 1.833c.166.087.273.261.273.447 0 .187-.107.36-.273.447z" fill="#be63f9"/></svg>