<svg enable-background="new 0 0 32 32" height="512" viewBox="0 0 32 32" width="512" xmlns="http://www.w3.org/2000/svg"><path d="m26 32h-20c-3.314 0-6-2.686-6-6v-20c0-3.314 2.686-6 6-6h20c3.314 0 6 2.686 6 6v20c0 3.314-2.686 6-6 6z" fill="#ffe6e2"/><path d="m22.833 8h-13.666c-.64 0-1.167.527-1.167 1.167v13.667c0 .639.527 1.166 1.167 1.166h13.667c.639 0 1.166-.527 1.166-1.167v-13.666c0-.64-.527-1.167-1.167-1.167zm-2.166 6.547v4.953c0 .64-.527 1.167-1.167 1.167h-7c-.64 0-1.167-.527-1.167-1.167v-6.333c0-.64.527-1.167 1.167-1.167h5.62c.273-.773 1.013-1.333 1.88-1.333 1.1 0 2 .9 2 2 0 .866-.56 1.606-1.333 1.88z" fill="#fc573b"/><g fill="#fd907e"><path d="m18.033 13h-5.533c-.093 0-.167.073-.167.167v6.333c0 .093.073.167.167.167h7c.093 0 .167-.073.167-.167v-4.867c-.834-.14-1.494-.8-1.634-1.633zm.354 3.78-3.667 1.833c-.067.033-.147.053-.22.053-.093 0-.18-.027-.26-.073-.153-.093-.24-.253-.24-.426v-3.667c0-.173.087-.333.24-.427.147-.093.327-.1.48-.02l3.667 1.833c.173.087.28.26.28.447s-.107.36-.28.447z"/><circle cx="20" cy="12.667" r="1"/></g></svg>