<svg enable-background="new 0 0 32 32" height="512" viewBox="0 0 32 32" width="512" xmlns="http://www.w3.org/2000/svg"><path d="m26 32h-20c-3.314 0-6-2.686-6-6v-20c0-3.314 2.686-6 6-6h20c3.314 0 6 2.686 6 6v20c0 3.314-2.686 6-6 6z" fill="#fff9dd"/><path d="m22.833 8h-13.666c-.64 0-1.167.527-1.167 1.167v13.667c0 .639.527 1.166 1.167 1.166h13.667c.639 0 1.166-.527 1.166-1.167v-13.666c0-.64-.527-1.167-1.167-1.167zm-2.166 6.547v4.953c0 .64-.527 1.167-1.167 1.167h-7c-.64 0-1.167-.527-1.167-1.167v-6.333c0-.64.527-1.167 1.167-1.167h5.62c.273-.773 1.013-1.333 1.88-1.333 1.1 0 2 .9 2 2 0 .866-.56 1.606-1.333 1.88z" fill="#ffd200"/><g fill="#ffe777"><path d="m18.033 13h-5.533c-.093 0-.167.073-.167.167v6.333c0 .093.073.167.167.167h7c.093 0 .167-.073.167-.167v-4.867c-.834-.14-1.494-.8-1.634-1.633zm-.18 5.52c-.1.1-.227.147-.353.147s-.253-.047-.353-.147l-.707-.707c-.227.12-.493.187-.773.187-.92 0-1.667-.747-1.667-1.667s.747-1.667 1.667-1.667 1.667.747 1.667 1.667c0 .28-.067.547-.187.773l.707.707c.193.194.193.514-.001.707z"/><circle cx="20" cy="12.667" r="1"/><circle cx="15.667" cy="16.333" r=".667"/></g></svg>