<svg enable-background="new 0 0 32 32" height="512" viewBox="0 0 32 32" width="512" xmlns="http://www.w3.org/2000/svg"><path d="m26 32h-20c-3.314 0-6-2.686-6-6v-20c0-3.314 2.686-6 6-6h20c3.314 0 6 2.686 6 6v20c0 3.314-2.686 6-6 6z" fill="#ffe6e2"/><path d="m22.833 8h-13.666c-.64 0-1.167.527-1.167 1.167v13.667c0 .639.527 1.166 1.167 1.166h13.667c.639 0 1.166-.527 1.166-1.167v-13.666c0-.64-.527-1.167-1.167-1.167zm-.833 10.833c0 .64-.527 1.167-1.167 1.167h-9.667c-.639 0-1.166-.527-1.166-1.167v-6.333c0-.64.527-1.167 1.167-1.167h9.667c.64 0 1.167.527 1.167 1.167v6.333z" fill="#fc573b"/><path d="m20.833 12.333h-9.667c-.093 0-.166.074-.166.167v6.333c0 .094.073.167.167.167h9.667c.093 0 .166-.073.166-.167v-6.333c0-.093-.073-.167-.167-.167z" fill="#fd907e"/></svg>