<svg enable-background="new 0 0 32 32" height="512" viewBox="0 0 32 32" width="512" xmlns="http://www.w3.org/2000/svg"><path d="m26 32h-20c-3.314 0-6-2.686-6-6v-20c0-3.314 2.686-6 6-6h20c3.314 0 6 2.686 6 6v20c0 3.314-2.686 6-6 6z" fill="#e3f8fa"/><path d="m22.833 8h-13.666c-.64 0-1.167.527-1.167 1.167v13.667c0 .639.527 1.166 1.167 1.166h13.667c.639 0 1.166-.527 1.166-1.167v-13.666c0-.64-.527-1.167-1.167-1.167zm-.833 10.833c0 .64-.527 1.167-1.167 1.167h-9.667c-.639 0-1.166-.527-1.166-1.167v-6.333c0-.64.527-1.167 1.167-1.167h9.667c.64 0 1.167.527 1.167 1.167v6.333z" fill="#26c6da"/><path d="m20.833 12.333h-9.667c-.093 0-.166.074-.166.167v6.333c0 .094.073.167.167.167h9.667c.093 0 .166-.073.166-.167v-6.333c0-.093-.073-.167-.167-.167zm-2.44 3.78-3.667 1.833c-.073.034-.153.054-.226.054-.093 0-.18-.027-.26-.073-.153-.094-.24-.254-.24-.427v-3.667c0-.173.087-.333.24-.427.147-.093.327-.1.487-.02l3.667 1.833c.167.087.273.26.273.447s-.107.361-.274.447z" fill="#8ce1eb"/></svg>