<svg enable-background="new 0 0 32 32" height="512" viewBox="0 0 32 32" width="512" xmlns="http://www.w3.org/2000/svg"><path d="m26 32h-20c-3.314 0-6-2.686-6-6v-20c0-3.314 2.686-6 6-6h20c3.314 0 6 2.686 6 6v20c0 3.314-2.686 6-6 6z" fill="#f5e6fe"/><path d="m22.833 8h-13.666c-.64 0-1.167.527-1.167 1.167v13.667c0 .639.527 1.166 1.167 1.166h13.667c.639 0 1.166-.527 1.166-1.167v-13.666c0-.64-.527-1.167-1.167-1.167zm-.833 10.833c0 .64-.527 1.167-1.167 1.167h-9.667c-.639 0-1.166-.527-1.166-1.167v-6.333c0-.64.527-1.167 1.167-1.167h9.667c.64 0 1.167.527 1.167 1.167v6.333z" fill="#be63f9"/><g fill="#d9a4fc"><circle cx="15.333" cy="15.333" r="1"/><path d="m20.833 12.333h-9.667c-.093 0-.166.074-.166.167v6.333c0 .094.073.167.167.167h9.667c.093 0 .166-.073.166-.167v-6.333c0-.093-.073-.167-.167-.167zm-2.98 5.52c-.1.1-.226.147-.353.147s-.253-.047-.353-.147l-.8-.8c-.3.18-.647.28-1.013.28-1.1 0-2-.9-2-2s.9-2 2-2 2 .9 2 2c0 .367-.1.713-.28 1.013l.8.8c.193.194.193.514-.001.707z"/></g></svg>