<svg enable-background="new 0 0 32 32" height="512" viewBox="0 0 32 32" width="512" xmlns="http://www.w3.org/2000/svg"><path d="m26 32h-20c-3.314 0-6-2.686-6-6v-20c0-3.314 2.686-6 6-6h20c3.314 0 6 2.686 6 6v20c0 3.314-2.686 6-6 6z" fill="#fff9dd"/><path d="m9.147 24h11.707c.633 0 1.146-.513 1.146-1.147v-8.58c-.16.027-.327.047-.5.053-.053.007-.113.007-.167.007-.113 0-.227-.007-.333-.02-1.753-.153-3.16-1.56-3.313-3.313l-.013-.5c.007-.173.027-.34.053-.5h-8.58c-.634 0-1.147.513-1.147 1.147v11.707c0 .633.513 1.146 1.147 1.146zm1.353-11.333h6.333c.273 0 .5.227.5.5s-.227.5-.5.5h-6.333c-.273 0-.5-.227-.5-.5 0-.274.227-.5.5-.5zm0 2h9c.273 0 .5.227.5.5s-.227.5-.5.5h-9c-.273 0-.5-.227-.5-.5 0-.274.227-.5.5-.5zm0 2h9c.273 0 .5.227.5.5s-.227.5-.5.5h-9c-.273 0-.5-.227-.5-.5 0-.274.227-.5.5-.5zm0 2h9c.273 0 .5.227.5.5s-.227.5-.5.5h-9c-.273 0-.5-.227-.5-.5 0-.274.227-.5.5-.5zm0 2h9c.273 0 .5.227.5.5s-.227.5-.5.5h-9c-.273 0-.5-.227-.5-.5 0-.274.227-.5.5-.5z" fill="#ffd200"/><circle cx="21.333" cy="10.667" fill="#ffe777" r="2.667"/></svg>