<svg enable-background="new 0 0 32 32" height="512" viewBox="0 0 32 32" width="512" xmlns="http://www.w3.org/2000/svg"><path d="m26 32h-20c-3.314 0-6-2.686-6-6v-20c0-3.314 2.686-6 6-6h20c3.314 0 6 2.686 6 6v20c0 3.314-2.686 6-6 6z" fill="#e3f8fa"/><path d="m9.147 24h11.707c.633 0 1.146-.513 1.146-1.147v-8.58c-.16.027-.327.047-.5.053-.053.007-.113.007-.167.007-.113 0-.227-.007-.333-.02-1.753-.153-3.16-1.56-3.313-3.313-.013-.107-.02-.22-.02-.333 0-.053 0-.113.007-.167.007-.173.027-.34.053-.5h-8.58c-.634 0-1.147.513-1.147 1.147v11.707c0 .633.513 1.146 1.147 1.146zm2.853-9.5c0-.173.087-.333.24-.427.147-.093.327-.1.48-.02l5 2.5c.173.087.28.26.28.447s-.107.36-.28.447l-5 2.5c-.067.033-.147.053-.22.053-.093 0-.18-.027-.26-.073-.153-.094-.24-.254-.24-.427z" fill="#26c6da"/><path d="m21.333 8c-1.24 0-2.287.847-2.58 2-.047.16-.073.327-.08.5-.007.053-.007.113-.007.167 0 .113.007.227.02.333.153 1.207 1.107 2.16 2.313 2.313.107.013.22.02.333.02.053 0 .113 0 .167-.007.173-.007.34-.033.5-.08 1.153-.293 2-1.34 2-2.58.001-1.473-1.192-2.666-2.666-2.666z" fill="#8ce1eb"/></svg>