<svg enable-background="new 0 0 32 32" height="512" viewBox="0 0 32 32" width="512" xmlns="http://www.w3.org/2000/svg"><path d="m26 32h-20c-3.314 0-6-2.686-6-6v-20c0-3.314 2.686-6 6-6h20c3.314 0 6 2.686 6 6v20c0 3.314-2.686 6-6 6z" fill="#f5e6fe"/><path d="m9.147 24h11.707c.633 0 1.146-.513 1.146-1.147v-8.58c-.16.027-.327.047-.5.053-.053.007-.113.007-.167.007-.113 0-.227-.007-.333-.02v2.207l-1.28-.953c-.433-.327-1.027-.307-1.447.047l-3.473 2.933-.253.04-2.153-1.667c-.413-.34-1.007-.34-1.453 0l-1.941 1.553v-7.327c0-.079.067-.146.147-.146h8.54c-.013-.107-.02-.22-.02-.333 0-.053 0-.113.007-.167.007-.173.027-.34.053-.5h-8.58c-.634 0-1.147.513-1.147 1.147v11.707c0 .633.513 1.146 1.147 1.146z" fill="#be63f9"/><circle cx="21.333" cy="10.667" fill="#d9a4fc" r="2.667"/></svg>