<svg enable-background="new 0 0 32 32" height="512" viewBox="0 0 32 32" width="512" xmlns="http://www.w3.org/2000/svg"><path d="m26 32h-20c-3.314 0-6-2.686-6-6v-20c0-3.314 2.686-6 6-6h20c3.314 0 6 2.686 6 6v20c0 3.314-2.686 6-6 6z" fill="#fff9dd"/><path d="m9.147 24h11.707c.633 0 1.146-.513 1.146-1.147v-8.58c-.16.027-.327.047-.5.053-.053.007-.113.007-.167.007-.113 0-.227-.007-.333-.02-1.753-.153-3.16-1.56-3.313-3.313-.013-.107-.02-.22-.02-.333 0-.053 0-.113.007-.167.007-.173.027-.34.053-.5h-8.58c-.634 0-1.147.513-1.147 1.147v11.707c0 .633.513 1.146 1.147 1.146zm5.52-10c1.473 0 2.667 1.193 2.667 2.667 0 .553-.173 1.073-.46 1.5l.98.98c.193.193.193.513 0 .707-.101.099-.227.146-.354.146s-.253-.047-.353-.147l-.98-.98c-.427.287-.947.46-1.5.46-1.473 0-2.667-1.193-2.667-2.667 0-1.473 1.193-2.666 2.667-2.666z" fill="#ffd200"/><circle cx="21.333" cy="10.667" fill="#ffe777" r="2.667"/><circle cx="14.667" cy="16.667" fill="#ffd200" r="1.667"/></svg>