<svg enable-background="new 0 0 32 32" height="512" viewBox="0 0 32 32" width="512" xmlns="http://www.w3.org/2000/svg"><path d="m26 32h-20c-3.314 0-6-2.686-6-6v-20c0-3.314 2.686-6 6-6h20c3.314 0 6 2.686 6 6v20c0 3.314-2.686 6-6 6z" fill="#f5e6fe"/><path d="m22.833 8h-13.666c-.64 0-1.167.527-1.167 1.167v13.667c0 .639.527 1.166 1.167 1.166h13.667c.639 0 1.166-.527 1.166-1.167v-13.666c0-.64-.527-1.167-1.167-1.167zm-.833 10.833c0 .64-.52 1.167-1.167 1.167h-9.667c-.646 0-1.166-.527-1.166-1.167v-6.333c0-.64.52-1.167 1.167-1.167h9.667c.646 0 1.166.527 1.166 1.167z" fill="#be63f9"/><path d="m20.833 12.333h-9.667c-.093 0-.166.074-.166.167v6.333c0 .094.073.167.167.167h9.667c.093 0 .166-.073.166-.167v-6.333c0-.093-.073-.167-.167-.167zm-4.833 1c.553 0 1 .447 1 1s-.447 1-1 1-1-.447-1-1 .447-1 1-1zm2 4.167c0 .273-.227.5-.5.5h-3c-.273 0-.5-.227-.5-.5v-.247c0-.693.627-1.253 1.4-1.253h1.2c.773 0 1.4.56 1.4 1.253z" fill="#d9a4fc"/></svg>