<svg enable-background="new 0 0 32 32" height="512" viewBox="0 0 32 32" width="512" xmlns="http://www.w3.org/2000/svg"><path d="m26 32h-20c-3.314 0-6-2.686-6-6v-20c0-3.314 2.686-6 6-6h20c3.314 0 6 2.686 6 6v20c0 3.314-2.686 6-6 6z" fill="#fff9dd"/><path d="m22.833 13.333h-8.333c-.64 0-1.167.527-1.167 1.167v8.333c0 .64.527 1.167 1.167 1.167h8.333c.64 0 1.167-.527 1.167-1.167v-8.333c0-.64-.527-1.167-1.167-1.167zm-1.78 5.447-3.667 1.833c-.067.033-.147.053-.22.053-.093 0-.18-.027-.26-.073-.153-.093-.24-.253-.24-.427v-3.666c0-.173.087-.333.24-.427.147-.093.327-.1.48-.02l3.667 1.833c.173.087.28.26.28.447s-.106.36-.28.447z" fill="#ffd200"/><circle cx="10" cy="15.333" fill="#ffd200" r="2"/><g fill="#ffe777"><path d="m8.5 21.667h3c.276 0 .5-.224.5-.5s-.224-.5-.5-.5h-3c-.276 0-.5.224-.5.5s.224.5.5.5z"/><path d="m8.5 23.667h3c.276 0 .5-.224.5-.5s-.224-.5-.5-.5h-3c-.276 0-.5.224-.5.5s.224.5.5.5z"/><path d="m8.5 19.667h3c.276 0 .5-.224.5-.5s-.224-.5-.5-.5h-3c-.276 0-.5.224-.5.5s.224.5.5.5z"/></g><path d="m22.833 8h-13.666c-.644 0-1.167.523-1.167 1.167v1.667c0 .643.523 1.166 1.167 1.166h13.667c.643 0 1.166-.523 1.166-1.167v-1.666c0-.644-.523-1.167-1.167-1.167z" fill="#ffd200"/></svg>