<svg enable-background="new 0 0 32 32" height="512" viewBox="0 0 32 32" width="512" xmlns="http://www.w3.org/2000/svg"><path d="m26 32h-20c-3.314 0-6-2.686-6-6v-20c0-3.314 2.686-6 6-6h20c3.314 0 6 2.686 6 6v20c0 3.314-2.686 6-6 6z" fill="#fff9dd"/><path d="m22.833 7.667h-13.666c-.644 0-1.167.523-1.167 1.166v1.667c0 .643.523 1.167 1.167 1.167h13.667c.643 0 1.167-.523 1.167-1.167v-1.667c-.001-.643-.524-1.166-1.168-1.166z" fill="#ffd200"/><g fill="#ffe777"><path d="m8.5 14.333h4.333c.276 0 .5-.224.5-.5s-.224-.5-.5-.5h-4.333c-.276 0-.5.224-.5.5s.224.5.5.5z"/><path d="m8.5 16.333h4.333c.276 0 .5-.224.5-.5s-.224-.5-.5-.5h-4.333c-.276 0-.5.224-.5.5s.224.5.5.5z"/><path d="m8.5 18.333h4.333c.276 0 .5-.224.5-.5s-.224-.5-.5-.5h-4.333c-.276 0-.5.224-.5.5s.224.5.5.5z"/><path d="m8.5 20.333h4.333c.276 0 .5-.224.5-.5s-.224-.5-.5-.5h-4.333c-.276 0-.5.224-.5.5s.224.5.5.5z"/><path d="m8.5 22.333h4.333c.276 0 .5-.224.5-.5s-.224-.5-.5-.5h-4.333c-.276 0-.5.224-.5.5s.224.5.5.5z"/></g><path d="m22.833 13.333h-7c-.64 0-1.167.527-1.167 1.167v6.667c0 .64.527 1.167 1.167 1.167h7c.64 0 1.167-.527 1.167-1.167v-6.667c0-.64-.527-1.167-1.167-1.167zm-3.5 2.334c.553 0 1 .447 1 1s-.447 1-1 1-1-.447-1-1c0-.554.447-1 1-1zm2 4.166c0 .273-.227.5-.5.5h-3c-.273 0-.5-.227-.5-.5v-.247c0-.693.627-1.253 1.4-1.253h1.2c.773 0 1.4.56 1.4 1.253z" fill="#ffd200"/></svg>