<svg enable-background="new 0 0 32 32" height="512" viewBox="0 0 32 32" width="512" xmlns="http://www.w3.org/2000/svg"><path d="m26 32h-20c-3.314 0-6-2.686-6-6v-20c0-3.314 2.686-6 6-6h20c3.314 0 6 2.686 6 6v20c0 3.314-2.686 6-6 6z" fill="#fff9dd"/><circle cx="10" cy="16" fill="#ffe777" r="2"/><circle cx="10" cy="22" fill="#ffe777" r="2"/><g fill="#ffd200"><path d="m22.833 8h-13.666c-.644 0-1.167.523-1.167 1.167v1.667c0 .643.523 1.166 1.167 1.166h13.667c.643 0 1.166-.523 1.166-1.167v-1.666c0-.644-.523-1.167-1.167-1.167z"/><path d="m22.833 13.333h-8.333c-.64 0-1.167.527-1.167 1.167v8.333c0 .64.527 1.167 1.167 1.167h8.333c.64 0 1.167-.527 1.167-1.167v-8.333c0-.64-.527-1.167-1.167-1.167zm-4.166 2.667c.553 0 1 .447 1 1s-.447 1-1 1-1-.447-1-1 .446-1 1-1zm2 4.167c0 .273-.227.5-.5.5h-3c-.273 0-.5-.227-.5-.5v-.247c0-.693.627-1.253 1.4-1.253h1.2c.773 0 1.4.56 1.4 1.253z"/></g></svg>