<svg enable-background="new 0 0 32 32" height="512" viewBox="0 0 32 32" width="512" xmlns="http://www.w3.org/2000/svg"><path d="m26 32h-20c-3.314 0-6-2.686-6-6v-20c0-3.314 2.686-6 6-6h20c3.314 0 6 2.686 6 6v20c0 3.314-2.686 6-6 6z" fill="#e3f8fa"/><path d="m26 32h-20c-3.314 0-6-2.686-6-6v-20c0-3.314 2.686-6 6-6h20c3.314 0 6 2.686 6 6v20c0 3.314-2.686 6-6 6z" fill="#e3f8fa"/><g fill="#26c6da"><path d="m22.833 8h-13.666c-.644 0-1.167.523-1.167 1.167v1.667c0 .643.523 1.166 1.167 1.166h13.667c.643 0 1.166-.523 1.166-1.167v-1.666c0-.644-.523-1.167-1.167-1.167z"/><path d="m22.833 13.333h-8.333c-.64 0-1.167.527-1.167 1.167v8.333c0 .64.527 1.167 1.167 1.167h8.333c.64 0 1.167-.527 1.167-1.167v-8.333c0-.64-.527-1.167-1.167-1.167zm-1.773 5.447-3.667 1.833c-.073.033-.153.053-.227.053-.093 0-.18-.027-.26-.073-.153-.093-.24-.253-.24-.427v-3.666c0-.173.087-.333.24-.427.147-.093.327-.1.487-.02l3.667 1.833c.167.087.273.26.273.447s-.106.36-.273.447z"/><circle cx="10" cy="21.667" r="2"/></g><g fill="#8ce1eb"><path d="m8.5 16.333h3c.276 0 .5-.224.5-.5s-.224-.5-.5-.5h-3c-.276 0-.5.224-.5.5s.224.5.5.5z"/><path d="m8.5 14.333h3c.276 0 .5-.224.5-.5s-.224-.5-.5-.5h-3c-.276 0-.5.224-.5.5s.224.5.5.5z"/><path d="m8.5 18.333h3c.276 0 .5-.224.5-.5s-.224-.5-.5-.5h-3c-.276 0-.5.224-.5.5s.224.5.5.5z"/></g></svg>