<svg enable-background="new 0 0 32 32" height="512" viewBox="0 0 32 32" width="512" xmlns="http://www.w3.org/2000/svg"><path d="m26 32h-20c-3.314 0-6-2.686-6-6v-20c0-3.314 2.686-6 6-6h20c3.314 0 6 2.686 6 6v20c0 3.314-2.686 6-6 6z" fill="#f5e6fe"/><g fill="#be63f9"><path d="m22.833 8h-13.666c-.644 0-1.167.523-1.167 1.167v1.667c0 .643.523 1.166 1.167 1.166h13.667c.643 0 1.166-.523 1.166-1.167v-1.666c0-.644-.523-1.167-1.167-1.167z"/><path d="m9.167 24h8.333c.64 0 1.167-.527 1.167-1.167v-8.333c0-.64-.527-1.167-1.167-1.167h-8.333c-.64 0-1.167.527-1.167 1.167v8.333c0 .64.527 1.167 1.167 1.167zm2.166-7.5c0-.173.087-.333.24-.427.147-.087.327-.1.48-.02l3.667 1.833c.173.087.28.26.28.447s-.107.36-.28.447l-3.667 1.833c-.067.033-.147.053-.22.053-.093 0-.18-.027-.26-.073-.153-.093-.24-.253-.24-.427z"/><circle cx="22" cy="21.667" r="2"/></g><g fill="#d9a4fc"><path d="m23.5 15.333h-3c-.276 0-.5.224-.5.5s.224.5.5.5h3c.276 0 .5-.224.5-.5s-.224-.5-.5-.5z"/><path d="m23.5 13.333h-3c-.276 0-.5.224-.5.5s.224.5.5.5h3c.276 0 .5-.224.5-.5s-.224-.5-.5-.5z"/><path d="m23.5 17.333h-3c-.276 0-.5.224-.5.5s.224.5.5.5h3c.276 0 .5-.224.5-.5s-.224-.5-.5-.5z"/></g></svg>