<svg enable-background="new 0 0 32 32" height="512" viewBox="0 0 32 32" width="512" xmlns="http://www.w3.org/2000/svg"><path d="m26 32h-20c-3.314 0-6-2.686-6-6v-20c0-3.314 2.686-6 6-6h20c3.314 0 6 2.686 6 6v20c0 3.314-2.686 6-6 6z" fill="#fff9dd"/><g fill="#ffe777"><path d="m8.5 14.333h4.333c.276 0 .5-.224.5-.5s-.224-.5-.5-.5h-4.333c-.276 0-.5.224-.5.5s.224.5.5.5z"/><path d="m8.5 16.333h4.333c.276 0 .5-.224.5-.5s-.224-.5-.5-.5h-4.333c-.276 0-.5.224-.5.5s.224.5.5.5z"/><path d="m8.5 18.333h4.333c.276 0 .5-.224.5-.5s-.224-.5-.5-.5h-4.333c-.276 0-.5.224-.5.5s.224.5.5.5z"/><path d="m8.5 20.333h4.333c.276 0 .5-.224.5-.5s-.224-.5-.5-.5h-4.333c-.276 0-.5.224-.5.5s.224.5.5.5z"/><path d="m8.5 22.333h4.333c.276 0 .5-.224.5-.5s-.224-.5-.5-.5h-4.333c-.276 0-.5.224-.5.5s.224.5.5.5z"/></g><g fill="#ffd200"><path d="m22.833 13.333h-7c-.64 0-1.167.527-1.167 1.167v6.667c0 .64.527 1.167 1.167 1.167h7c.64 0 1.167-.527 1.167-1.167v-6.667c0-.64-.527-1.167-1.167-1.167zm-3.5 2.334c.553 0 1 .447 1 1s-.447 1-1 1-1-.447-1-1c0-.554.447-1 1-1zm2 4.166c0 .273-.227.5-.5.5h-3c-.273 0-.5-.227-.5-.5v-.247c0-.693.627-1.253 1.4-1.253h1.2c.773 0 1.4.56 1.4 1.253z"/><path d="m23.147 10.107c.12-.227.187-.493.187-.773 0-.92-.747-1.667-1.667-1.667s-1.667.746-1.667 1.666.747 1.667 1.667 1.667c.28 0 .546-.067.773-.187l.707.707c.098.098.226.146.354.146s.256-.049.354-.146c.195-.195.195-.512 0-.707zm-1.48-.107c-.367 0-.667-.3-.667-.667s.3-.667.667-.667.667.3.667.667c-.001.367-.301.667-.667.667z"/><path d="m9.167 11.667h8.333c.643 0 1.167-.523 1.167-1.167v-1.667c0-.643-.523-1.167-1.167-1.167h-8.333c-.644.001-1.167.524-1.167 1.167v1.667c0 .643.523 1.167 1.167 1.167z"/></g></svg>