<svg enable-background="new 0 0 32 32" height="512" viewBox="0 0 32 32" width="512" xmlns="http://www.w3.org/2000/svg"><path d="m26 32h-20c-3.314 0-6-2.686-6-6v-20c0-3.314 2.686-6 6-6h20c3.314 0 6 2.686 6 6v20c0 3.314-2.686 6-6 6z" fill="#e3f8fa"/><path d="m22.833 13.333h-13.666c-.64 0-1.167.527-1.167 1.167v8.333c0 .64.527 1.167 1.167 1.167h13.667c.639 0 1.166-.527 1.166-1.167v-8.333c0-.64-.527-1.167-1.167-1.167zm-8 9h-4.333c-.28 0-.5-.227-.5-.5s.22-.5.5-.5h4.333c.273 0 .5.227.5.5 0 .274-.226.5-.5.5zm0-2h-4.333c-.28 0-.5-.227-.5-.5s.22-.5.5-.5h4.333c.273 0 .5.227.5.5 0 .274-.226.5-.5.5zm0-2h-4.333c-.28 0-.5-.227-.5-.5s.22-.5.5-.5h4.333c.273 0 .5.227.5.5 0 .274-.226.5-.5.5zm0-2h-4.333c-.28 0-.5-.227-.5-.5s.22-.5.5-.5h4.333c.273 0 .5.227.5.5 0 .274-.226.5-.5.5zm6.667 6h-4.333c-.273 0-.5-.227-.5-.5s.227-.5.5-.5h4.333c.273 0 .5.227.5.5 0 .274-.227.5-.5.5zm0-2h-4.333c-.273 0-.5-.227-.5-.5s.227-.5.5-.5h4.333c.273 0 .5.227.5.5 0 .274-.227.5-.5.5zm0-2h-4.333c-.273 0-.5-.227-.5-.5s.227-.5.5-.5h4.333c.273 0 .5.227.5.5 0 .274-.227.5-.5.5zm0-2h-4.333c-.273 0-.5-.227-.5-.5s.227-.5.5-.5h4.333c.273 0 .5.227.5.5 0 .274-.227.5-.5.5z" fill="#26c6da"/><path d="m22.833 8h-13.666c-.644 0-1.167.523-1.167 1.167v1.667c0 .643.523 1.166 1.167 1.166h13.667c.643 0 1.166-.523 1.166-1.167v-1.666c0-.644-.523-1.167-1.167-1.167z" fill="#8ce1eb"/></svg>