<svg enable-background="new 0 0 32 32" height="512" viewBox="0 0 32 32" width="512" xmlns="http://www.w3.org/2000/svg"><path d="m26 32h-20c-3.314 0-6-2.686-6-6v-20c0-3.314 2.686-6 6-6h20c3.314 0 6 2.686 6 6v20c0 3.314-2.686 6-6 6z" fill="#f5e6fe"/><path d="m22.833 8h-8.333c-.643 0-1.167.523-1.167 1.167v1.667c0 .643.523 1.167 1.167 1.167h8.333c.644-.001 1.167-.524 1.167-1.168v-1.666c0-.644-.523-1.167-1.167-1.167z" fill="#d9a4fc"/><circle cx="10" cy="10" fill="#d9a4fc" r="2"/><path d="m22.833 13.333h-13.666c-.64 0-1.167.527-1.167 1.167v8.333c0 .64.527 1.167 1.167 1.167h13.667c.639 0 1.166-.527 1.166-1.167v-8.333c0-.64-.527-1.167-1.167-1.167zm-9.833 8c-1.653 0-3-1.347-3-3s1.347-3 3-3 3 1.347 3 3c0 1.654-1.347 3-3 3zm8.5-.333h-3.667c-.273 0-.5-.227-.5-.5s.227-.5.5-.5h3.667c.273 0 .5.227.5.5s-.227.5-.5.5zm0-2h-3.667c-.273 0-.5-.227-.5-.5s.227-.5.5-.5h3.667c.273 0 .5.227.5.5s-.227.5-.5.5zm0-2h-3.667c-.273 0-.5-.227-.5-.5s.227-.5.5-.5h3.667c.273 0 .5.227.5.5s-.227.5-.5.5z" fill="#be63f9"/></svg>