<svg enable-background="new 0 0 32 32" height="512" viewBox="0 0 32 32" width="512" xmlns="http://www.w3.org/2000/svg"><path d="m26 32h-20c-3.314 0-6-2.686-6-6v-20c0-3.314 2.686-6 6-6h20c3.314 0 6 2.686 6 6v20c0 3.314-2.686 6-6 6z" fill="#ffe6e2"/><path d="m22.833 13.333h-13.666c-.64 0-1.167.527-1.167 1.167v8.333c0 .64.527 1.167 1.167 1.167h13.667c.639 0 1.166-.527 1.166-1.167v-8.333c0-.64-.527-1.167-1.167-1.167zm-8.666 7.667h-3.667c-.273 0-.5-.227-.5-.5s.227-.5.5-.5h3.667c.273 0 .5.227.5.5s-.227.5-.5.5zm0-2h-3.667c-.273 0-.5-.227-.5-.5s.227-.5.5-.5h3.667c.273 0 .5.227.5.5s-.227.5-.5.5zm0-2h-3.667c-.273 0-.5-.227-.5-.5s.227-.5.5-.5h3.667c.273 0 .5.227.5.5s-.227.5-.5.5zm4.833 4.333c-1.653 0-3-1.347-3-3s1.347-3 3-3 3 1.347 3 3c0 1.654-1.347 3-3 3z" fill="#fc573b"/><g fill="#fd907e"><path d="m23.147 10.44c.12-.227.187-.493.187-.773 0-.92-.747-1.667-1.667-1.667s-1.667.747-1.667 1.667.747 1.667 1.667 1.667c.28 0 .546-.067.773-.187l.707.707c.097.097.225.146.353.146s.256-.049.354-.146c.195-.195.195-.512 0-.707zm-1.48-.107c-.367 0-.667-.3-.667-.667 0-.366.3-.666.667-.666s.667.3.667.667c-.001.366-.301.666-.667.666z"/><path d="m9.167 12h8.333c.64 0 1.167-.527 1.167-1.167v-1.666c0-.64-.527-1.167-1.167-1.167h-8.333c-.64 0-1.167.527-1.167 1.167v1.667c0 .639.527 1.166 1.167 1.166z"/></g></svg>