<svg enable-background="new 0 0 32 32" height="512" viewBox="0 0 32 32" width="512" xmlns="http://www.w3.org/2000/svg"><path d="m26 32h-20c-3.314 0-6-2.686-6-6v-20c0-3.314 2.686-6 6-6h20c3.314 0 6 2.686 6 6v20c0 3.314-2.686 6-6 6z" fill="#f5e6fe"/><path d="m8.5 22.793 6.793-6.793-7.22-7.22c-.046.12-.073.253-.073.387v13.667c0 .133.027.267.073.387z" fill="#d9a4fc"/><path d="m8.78 23.927c.12.046.253.073.387.073h13.667c.133 0 .267-.027.387-.073l-7.221-7.22-6.793 6.793z" fill="#be63f9"/><path d="m16.707 16 6.793 6.793.427.427c.046-.12.073-.253.073-.387v-13.666c0-.133-.027-.267-.073-.387z" fill="#d9a4fc"/><path d="m22.833 8h-13.666c-.134 0-.267.027-.387.073l.427.427 6.793 6.793 7.22-7.22c-.12-.046-.253-.073-.387-.073z" fill="#be63f9"/></svg>