<svg enable-background="new 0 0 32 32" height="512" viewBox="0 0 32 32" width="512" xmlns="http://www.w3.org/2000/svg"><path d="m26 32h-20c-3.314 0-6-2.686-6-6v-20c0-3.314 2.686-6 6-6h20c3.314 0 6 2.686 6 6v20c0 3.314-2.686 6-6 6z" fill="#ffe6e2"/><g fill="#fd907e"><path d="m11 12.76v5.907l4.107-2.974z"/><path d="m19.747 12.333h-7.62l3.84 2.74z"/><path d="m12.253 19h7.48l-3.766-2.693z"/><path d="m21 18.673v-6.006l-4.173 3.02z"/></g><path d="m22.833 8h-13.666c-.64 0-1.167.527-1.167 1.167v13.667c0 .639.527 1.166 1.167 1.166h13.667c.639 0 1.166-.527 1.166-1.167v-13.666c0-.64-.527-1.167-1.167-1.167zm-.833 10.833c0 .44-.247.827-.613 1.02-.167.094-.354.147-.554.147h-9.667c-.2 0-.387-.053-.553-.147-.366-.193-.613-.58-.613-1.02v-6.333c0-.327.133-.62.353-.82.033-.04.067-.08.113-.107.02-.02.047-.033.067-.047.187-.127.4-.193.633-.193h9.667c.2 0 .387.053.553.147.367.193.614.58.614 1.02z" fill="#fc573b"/></svg>