<svg enable-background="new 0 0 32 32" height="512" viewBox="0 0 32 32" width="512" xmlns="http://www.w3.org/2000/svg"><path d="m26 32h-20c-3.314 0-6-2.686-6-6v-20c0-3.314 2.686-6 6-6h20c3.314 0 6 2.686 6 6v20c0 3.314-2.686 6-6 6z" fill="#fff9dd"/><g fill="#ffd200"><path d="m8.52 22.993.48-.313 6.087-4.013-6.087-4.014-.48-.313-.427-.287c-.06.14-.093.287-.093.447v8.333c0 .16.033.307.093.447z"/><path d="m23.48 14.333-.48.32-6.093 4.013 6.093 4.014.48.313.427.287c.06-.14.093-.287.093-.447v-8.333c0-.16-.033-.307-.093-.447z"/><path d="m22.427 13.833.693-.46c-.093-.027-.187-.04-.287-.04h-13.666c-.1 0-.193.013-.287.04l.693.46.76.5 5.667 3.734 5.667-3.733z"/><path d="m9.573 23.5-.693.46c.093.027.187.04.287.04h13.667c.107 0 .207-.013.3-.047-.073-.033-.147-.08-.227-.133l-.487-.32-.76-.5-5.66-3.733-5.667 3.733z"/></g><path d="m22.833 8h-13.666c-.644 0-1.167.523-1.167 1.167v1.667c0 .643.523 1.166 1.167 1.166h13.667c.643 0 1.166-.523 1.166-1.167v-1.666c0-.644-.523-1.167-1.167-1.167z" fill="#ffe777"/></svg>