<svg enable-background="new 0 0 32 32" height="512" viewBox="0 0 32 32" width="512" xmlns="http://www.w3.org/2000/svg"><path d="m26 32h-20c-3.314 0-6-2.686-6-6v-20c0-3.314 2.686-6 6-6h20c3.314 0 6 2.686 6 6v20c0 3.314-2.686 6-6 6z" fill="#ffe6e2"/><g fill="#fd907e"><path d="m11.667 17.227-2.567 5.76-.2.453-.2.46c.147.067.3.1.467.1h5c.167 0 .327-.033.473-.1l-.207-.46-.2-.453z"/><path d="m9.167 8c-.167 0-.327.033-.474.1l.207.46.2.453 2.567 5.76 2.567-5.76.2-.453.206-.46c-.147-.067-.307-.1-.473-.1z"/><path d="m8.5 21.88.5-1.127 2.12-4.753-2.12-4.76-.5-1.12-.487-1.087c-.013.04-.013.087-.013.134v13.667c0 .047 0 .093.013.133z"/><path d="m15.32 22.967c.013-.04.013-.087.013-.133v-13.667c0-.047 0-.093-.013-.133l-.487 1.087-.5 1.127-2.12 4.752 2.12 4.753.5 1.127z"/></g><g fill="#fc573b"><path d="m23.5 10.12-.5 1.127-2.12 4.753 2.12 4.753.5 1.127.487 1.087c.013-.04.013-.087.013-.134v-13.666c0-.047 0-.093-.013-.133z"/><path d="m16.68 9.033c-.013.04-.013.087-.013.133v13.667c0 .047 0 .093.013.133l.487-1.087.5-1.127 2.12-4.752-2.12-4.76-.5-1.12z"/><path d="m23.1 8.56.207-.46c-.147-.067-.307-.1-.474-.1h-5c-.167 0-.327.033-.473.1l.207.46.2.453 2.567 5.76 2.567-5.76z"/><path d="m17.567 23.44-.2.46c.147.067.3.1.467.1h5c.167 0 .327-.033.473-.1l-.207-.46-.2-.453-2.567-5.76-2.567 5.76z"/></g></svg>