<svg enable-background="new 0 0 32 32" height="512" viewBox="0 0 32 32" width="512" xmlns="http://www.w3.org/2000/svg"><path d="m26 32h-20c-3.314 0-6-2.686-6-6v-20c0-3.314 2.686-6 6-6h20c3.314 0 6 2.686 6 6v20c0 3.314-2.686 6-6 6z" fill="#fff9dd"/><path d="m22.833 8h-13.666c-.644 0-1.167.523-1.167 1.167v1.667c0 .643.523 1.166 1.167 1.166h13.667c.643 0 1.166-.523 1.166-1.167v-1.666c0-.644-.523-1.167-1.167-1.167z" fill="#ffd200"/><g fill="#ffe777"><path d="m15.26 23.22c.047-.12.073-.253.073-.387v-8.333c0-.1-.013-.2-.047-.293l-.453.673-.5.733-2.1 3.113 2.1 3.12.5.74z"/><path d="m8.5 22.46.5-.74 2.027-2.993-2.027-3-.5-.74-.473-.707c-.02.073-.027.147-.027.22v8.333c0 .107.013.207.047.3z"/><path d="m9.167 13.333c-.173 0-.347.04-.493.113l.287.427.313.46 2.353 3.5 2.367-3.5.327-.48.293-.427c-.14-.06-.287-.093-.447-.093z"/><path d="m13.907 23-2.28-3.38-2.287 3.38-.327.48-.287.433c.134.054.287.087.441.087h5c.127 0 .253-.02.367-.067l-.293-.44z"/></g><g fill="#ffd200"><path d="m23.5 14.88-.5.733-2.1 3.113 2.1 3.12.5.74.427.633c.046-.119.073-.252.073-.386v-8.333c0-.1-.013-.2-.047-.293z"/><path d="m16.693 14.28c-.02.073-.027.147-.027.22v8.333c0 .107.013.207.047.3l.453-.673.5-.74 2.027-2.993-2.027-3-.5-.74z"/><path d="m17.68 23.48-.287.433c.134.054.287.087.44.087h5c.127 0 .253-.02.367-.067l-.293-.44-.334-.493-2.28-3.38-2.286 3.38z"/><path d="m22.987 13.853.293-.427c-.14-.06-.287-.093-.447-.093h-5c-.173 0-.347.04-.493.113l.287.427.313.46 2.353 3.5 2.367-3.5z"/></g></svg>