<svg enable-background="new 0 0 32 32" height="512" viewBox="0 0 32 32" width="512" xmlns="http://www.w3.org/2000/svg"><path d="m26 32h-20c-3.314 0-6-2.686-6-6v-20c0-3.314 2.686-6 6-6h20c3.314 0 6 2.686 6 6v20c0 3.314-2.686 6-6 6z" fill="#e3f8fa"/><path d="m23.147 10.44c.12-.227.187-.493.187-.773 0-.92-.747-1.667-1.667-1.667s-1.667.747-1.667 1.667.747 1.667 1.667 1.667c.28 0 .546-.067.773-.187l.707.707c.097.097.225.146.353.146s.256-.049.354-.146c.195-.195.195-.512 0-.707zm-1.48-.107c-.367 0-.667-.3-.667-.667 0-.366.3-.666.667-.666s.667.3.667.667c-.001.366-.301.666-.667.666z" fill="#26c6da"/><path d="m9.167 12h8.333c.643 0 1.167-.523 1.167-1.167v-1.666c0-.644-.524-1.167-1.167-1.167h-8.333c-.644 0-1.167.523-1.167 1.167v1.667c0 .643.523 1.166 1.167 1.166z" fill="#26c6da"/><g fill="#8ce1eb"><path d="m15.26 23.22c.047-.12.073-.253.073-.387v-8.333c0-.1-.013-.2-.047-.293l-.453.673-.5.733-2.1 3.113 2.1 3.12.5.74z"/><path d="m8.5 22.46.5-.74 2.027-2.993-2.027-3-.5-.74-.473-.707c-.02.073-.027.147-.027.22v8.333c0 .107.013.207.047.3z"/><path d="m9.013 23.48-.287.433c.134.054.287.087.441.087h5c.127 0 .253-.02.367-.067l-.293-.44-.334-.493-2.28-3.38-2.287 3.38z"/><path d="m14.32 13.853.293-.427c-.14-.06-.287-.093-.447-.093h-5c-.173 0-.347.04-.493.113l.287.427.313.46 2.353 3.5 2.367-3.5z"/></g><g fill="#26c6da"><path d="m17.667 15.727-.5-.74-.473-.707c-.02.073-.027.147-.027.22v8.333c0 .107.013.207.047.3l.453-.673.5-.74 2.027-2.993z"/><path d="m23.5 14.88-.5.733-2.1 3.113 2.1 3.12.5.74.427.633c.046-.119.073-.252.073-.386v-8.333c0-.1-.013-.2-.047-.293z"/><path d="m22.833 24c.127 0 .253-.02.367-.067l-.293-.44-.334-.493-2.28-3.38-2.286 3.38-.327.48-.287.433c.134.054.287.087.44.087z"/><path d="m22.987 13.853.293-.427c-.14-.06-.287-.093-.447-.093h-5c-.173 0-.347.04-.493.113l.287.427.313.46 2.353 3.5 2.367-3.5z"/></g></svg>