<svg enable-background="new 0 0 32 32" height="512" viewBox="0 0 32 32" width="512" xmlns="http://www.w3.org/2000/svg"><path d="m26 32h-20c-3.314 0-6-2.686-6-6v-20c0-3.314 2.686-6 6-6h20c3.314 0 6 2.686 6 6v20c0 3.314-2.686 6-6 6z" fill="#f5e6fe"/><g fill="#be63f9"><path d="m23.147 10.44c.12-.226.187-.493.187-.773 0-.92-.747-1.667-1.667-1.667s-1.667.747-1.667 1.667.747 1.667 1.667 1.667c.28 0 .546-.067.773-.187l.707.707c.097.097.225.146.353.146s.256-.049.354-.146c.195-.195.195-.512 0-.707zm-1.48-.107c-.367 0-.667-.3-.667-.667 0-.366.3-.666.667-.666s.667.3.667.667c-.001.366-.301.666-.667.666z"/><path d="m9.167 12h8.333c.643 0 1.167-.523 1.167-1.167v-1.666c0-.644-.524-1.167-1.167-1.167h-8.333c-.644 0-1.167.523-1.167 1.167v1.667c0 .643.523 1.166 1.167 1.166z"/><path d="m17.887 13.407c-.12-.047-.253-.073-.387-.073h-8.333c-.133 0-.267.027-.387.073l.427.427.5.5 3.627 3.627 3.627-3.627z"/><path d="m9.207 23.5-.427.427c.12.046.253.073.387.073h8.333c.133 0 .267-.027.387-.073l-.927-.927-3.627-3.627-3.626 3.627z"/><path d="m8.5 22.793 4.127-4.127-3.677-3.676-.876-.876c-.047.119-.074.253-.074.386v8.333c0 .133.027.267.073.387z"/><path d="m18.593 23.22c.047-.12.073-.253.073-.387v-8.333c0-.133-.027-.267-.073-.387l-.876.876-3.677 3.677 4.127 4.127z"/></g><g fill="#d9a4fc"><circle cx="22" cy="16" r="2"/><circle cx="22" cy="22" r="2"/></g></svg>