<svg enable-background="new 0 0 32 32" height="512" viewBox="0 0 32 32" width="512" xmlns="http://www.w3.org/2000/svg"><path d="m26 32h-20c-3.314 0-6-2.686-6-6v-20c0-3.314 2.686-6 6-6h20c3.314 0 6 2.686 6 6v20c0 3.314-2.686 6-6 6z" fill="#ffe6e2"/><g fill="#fc573b"><path d="m22.833 8h-8.333c-.643 0-1.167.523-1.167 1.167v1.667c0 .643.523 1.167 1.167 1.167h8.333c.644-.001 1.167-.524 1.167-1.168v-1.666c0-.644-.523-1.167-1.167-1.167z"/><circle cx="10" cy="10" r="2"/><path d="m23.22 13.407c-.12-.047-.253-.073-.387-.073h-8.333c-.133 0-.267.027-.387.073l.427.427.5.5 3.627 3.627 3.627-3.627z"/><path d="m14.54 23.5-.427.427c.12.046.254.073.387.073h8.333c.133 0 .267-.027.387-.073l-.927-.927-3.627-3.627-3.626 3.627z"/><path d="m23.05 14.99-3.677 3.677 4.127 4.127.427.427c.046-.121.073-.254.073-.388v-8.333c0-.133-.027-.267-.073-.387z"/><path d="m13.333 14.5v8.333c0 .133.027.267.073.387l.427-.427 4.127-4.127-3.677-3.677-.876-.876c-.047.12-.074.254-.074.387z"/></g><path d="m9.167 24h1.667c.643 0 1.166-.523 1.166-1.167v-8.333c0-.643-.523-1.167-1.167-1.167h-1.666c-.644 0-1.167.524-1.167 1.167v8.333c0 .644.523 1.167 1.167 1.167z" fill="#fd907e"/></svg>