<svg enable-background="new 0 0 32 32" height="512" viewBox="0 0 32 32" width="512" xmlns="http://www.w3.org/2000/svg"><path d="m26 32h-20c-3.314 0-6-2.686-6-6v-20c0-3.314 2.686-6 6-6h20c3.314 0 6 2.686 6 6v20c0 3.314-2.686 6-6 6z" fill="#f5e6fe"/><g fill="#be63f9"><path d="m22.833 8h-8.333c-.643 0-1.167.523-1.167 1.167v1.667c0 .643.523 1.167 1.167 1.167h8.333c.644-.001 1.167-.524 1.167-1.168v-1.666c0-.644-.523-1.167-1.167-1.167z"/><circle cx="10" cy="10" r="2"/><path d="m8.95 14.99-.876-.876c-.047.119-.074.253-.074.386v8.333c0 .133.027.267.073.387l.427-.427 4.127-4.127z"/><path d="m13.333 19.373-3.626 3.627-.5.5-.427.427c.12.046.253.073.387.073h8.333c.133 0 .267-.027.387-.073l-.927-.927z"/><path d="m8.78 13.407.427.427.5.5 3.627 3.627 3.627-3.627.927-.927c-.12-.047-.253-.073-.387-.073h-8.334c-.134-.001-.267.026-.387.073z"/><path d="m17.717 14.99-3.677 3.677 4.127 4.127.427.427c.047-.12.073-.253.073-.387v-8.334c0-.133-.027-.267-.073-.387z"/></g><g fill="#d9a4fc"><circle cx="22" cy="16" r="2"/><circle cx="22" cy="22" r="2"/></g></svg>