<svg enable-background="new 0 0 32 32" height="512" viewBox="0 0 32 32" width="512" xmlns="http://www.w3.org/2000/svg"><path d="m26 32h-20c-3.314 0-6-2.686-6-6v-20c0-3.314 2.686-6 6-6h20c3.314 0 6 2.686 6 6v20c0 3.314-2.686 6-6 6z" fill="#e3f8fa"/><g fill="#26c6da"><path d="m23.44 8.9-.453.2-5.753 2.567 5.753 2.56.46.207.453.2c.067-.147.1-.3.1-.467v-5c0-.167-.033-.327-.1-.474z"/><path d="m8.56 14.433.453-.2 5.753-2.567-5.753-2.566-.453-.2-.46-.2c-.067.147-.1.3-.1.467v5c0 .167.033.327.1.473z"/><path d="m21.88 8.5 1.087-.487c-.04-.013-.087-.013-.134-.013h-13.666c-.047 0-.094 0-.134.013l1.094.487 1.12.5 4.753 2.12 4.753-2.12z"/><path d="m20.753 14.333-4.753-2.12-4.753 2.12-1.127.5-1.087.487c.04.013.087.013.133.013h13.667c.047 0 .093 0 .133-.013l-1.093-.487z"/></g><g fill="#8ce1eb"><path d="m9.013 17.773v-.007l-.453-.2-.46-.2c-.067.147-.1.3-.1.467v5c0 .167.033.327.107.474l.453-.207.453-.2 5.76-2.567z"/><path d="m9.167 16.667c-.047 0-.093 0-.14.013l1.087.487 1.127.5 4.76 2.12 4.76-2.12 1.127-.5 1.087-.487c-.047-.013-.093-.013-.14-.013z"/><path d="m23.447 17.567-.46.2v.007l-5.753 2.56 5.753 2.567.453.2.46.207c.067-.148.1-.308.1-.475v-5c0-.167-.033-.32-.1-.467z"/><path d="m20.76 23-4.76-2.12-4.753 2.12-1.12.5-1.093.487c.039.013.086.013.133.013h13.667c.047 0 .093 0 .133-.013l-1.087-.487z"/></g></svg>