<svg enable-background="new 0 0 32 32" height="512" viewBox="0 0 32 32" width="512" xmlns="http://www.w3.org/2000/svg"><path d="m26 32h-20c-3.314 0-6-2.686-6-6v-20c0-3.314 2.686-6 6-6h20c3.314 0 6 2.686 6 6v20c0 3.314-2.686 6-6 6z" fill="#f5e6fe"/><path d="m22.833 8h-13.666c-.644 0-1.167.523-1.167 1.167v5c0 .643.523 1.167 1.167 1.167h13.667c.643 0 1.167-.523 1.167-1.167v-5c-.001-.644-.524-1.167-1.168-1.167z" fill="#be63f9"/><path d="m22.833 16.667h-13.666c-.644 0-1.167.523-1.167 1.166v5c0 .644.523 1.167 1.167 1.167h13.667c.643 0 1.166-.523 1.166-1.167v-5c0-.643-.523-1.166-1.167-1.166z" fill="#d9a4fc"/></svg>